<svg width="334" height="387" viewBox="0 0 334 387" fill="none" xmlns="http://www.w3.org/2000/svg">
<g filter="url(#filter0_d_1502_10608)">
<path d="M7 25C7 13.9543 15.9543 5 27 5H297C308.046 5 317 13.9543 317 25V339.665C317 350.71 308.046 359.665 297 359.665H267.557C264.779 359.665 262.255 361.28 261.09 363.803V363.803C258.609 369.179 251.031 369.356 248.303 364.1L248.065 363.642C246.796 361.198 244.272 359.665 241.519 359.665H27C15.9543 359.665 7 350.71 7 339.665V25Z" fill="white"/>
<path d="M27 5.5H297C307.77 5.5 316.5 14.2304 316.5 25V339.665C316.5 350.434 307.77 359.165 297 359.165H267.557C264.584 359.165 261.882 360.893 260.636 363.593C258.329 368.592 251.283 368.756 248.746 363.87L248.508 363.411C247.154 360.802 244.459 359.165 241.519 359.165H27C16.2304 359.165 7.5 350.434 7.5 339.665V25C7.5 14.2304 16.2304 5.5 27 5.5Z" stroke="url(#paint0_linear_1502_10608)"/>
</g>
<defs>
<filter id="filter0_d_1502_10608" x="0.4" y="0.4" width="333.2" height="386.139" filterUnits="userSpaceOnUse" color-interpolation-filters="sRGB">
<feFlood flood-opacity="0" result="BackgroundImageFix"/>
<feColorMatrix in="SourceAlpha" type="matrix" values="0 0 0 0 0 0 0 0 0 0 0 0 0 0 0 0 0 0 127 0" result="hardAlpha"/>
<feOffset dx="5" dy="7"/>
<feGaussianBlur stdDeviation="5.8"/>
<feComposite in2="hardAlpha" operator="out"/>
<feColorMatrix type="matrix" values="0 0 0 0 0.246804 0 0 0 0 0.248985 0 0 0 0 0.303516 0 0 0 0.07 0"/>
<feBlend mode="normal" in2="BackgroundImageFix" result="effect1_dropShadow_1502_10608"/>
<feBlend mode="normal" in="SourceGraphic" in2="effect1_dropShadow_1502_10608" result="shape"/>
</filter>
<linearGradient id="paint0_linear_1502_10608" x1="7" y1="5" x2="379.056" y2="83.7266" gradientUnits="userSpaceOnUse">
<stop stop-color="#FFD482"/>
<stop offset="1" stop-color="#FF377F"/>
</linearGradient>
</defs>
</svg>
