<svg width="30" height="32" viewBox="0 0 30 32" fill="none" xmlns="http://www.w3.org/2000/svg">
<path d="M18.8889 14.5H27.4444V25C27.4444 28.3137 24.6587 31 21.2222 31H8.77778C5.34134 31 2.55556 28.3137 2.55556 25V14.5H11.1111M22 14.5H26.6667C27.9553 14.5 29 13.4926 29 12.25V9.25C29 8.00736 27.9553 7 26.6667 7H3.33333C2.04467 7 1 8.00736 1 9.25V12.25C1 13.4926 2.04467 14.5 3.33333 14.5H8M15 7H19.6667C21.3849 7 22.7778 5.65685 22.7778 4C22.7778 2.34315 21.3849 1 19.6667 1H18.8889C16.7411 1 15 2.67893 15 4.75M15 7V4.75M15 7H10.3333C8.61511 7 7.22222 5.65685 7.22222 4C7.22222 2.34315 8.61511 1 10.3333 1H11.1111C13.2589 1 15 2.67893 15 4.75M18.8889 7L18.8889 31H11.1111L11.1111 7L18.8889 7Z" stroke="white" stroke-width="2"/>
</svg>
