<svg xmlns="http://www.w3.org/2000/svg" width="37" height="30" viewBox="0 0 37 30" fill="none">
    <path d="M15.6053 1.62099C16.93 -0.540332 20.0701 -0.54033 21.3947 1.62099L35.6195 24.8308C37.006 27.093 35.3781 30 32.7248 30H4.27519C1.62191 30 -0.00596768 27.093 1.3805 24.8308L15.6053 1.62099Z" fill="#FFC830"/>
    <path d="M19.9635 19.5827H16.8503L16.5021 9.65601H20.3316L19.9635 19.5827ZM18.4218 24.2675C18.0704 24.2675 17.7455 24.1813 17.4471 24.0089C17.1487 23.8298 16.9133 23.5944 16.7409 23.3027C16.5751 23.0109 16.4922 22.6893 16.4922 22.3378C16.4922 21.9997 16.5751 21.6847 16.7409 21.3929C16.9133 21.1012 17.1487 20.8724 17.4471 20.7066C17.7455 20.5342 18.0704 20.448 18.4218 20.448C18.76 20.448 19.075 20.5342 19.3667 20.7066C19.6585 20.8724 19.8939 21.1012 20.0729 21.3929C20.2586 21.6847 20.3514 21.9997 20.3514 22.3378C20.3514 22.6893 20.2586 23.0109 20.0729 23.3027C19.8939 23.5944 19.6585 23.8298 19.3667 24.0089C19.075 24.1813 18.76 24.2675 18.4218 24.2675Z" fill="black"/>
</svg>