<svg xmlns="http://www.w3.org/2000/svg" width="36" height="42" viewBox="0 0 36 42" fill="none">
    <path d="M10.7092 0H1.79295C1.08549 0 0.601729 0.714527 0.864475 1.37139L8.90658 21.4767C9.05844 21.8563 9.42615 22.1053 9.83506 22.1053H26.1652C26.5741 22.1053 26.9418 21.8563 27.0937 21.4767L35.1358 1.37139C35.3985 0.714526 34.9148 0 34.2073 0H25.2911C24.8911 0 24.5295 0.238397 24.372 0.606081L18.184 15.0447C18.1147 15.2064 17.8856 15.2064 17.8163 15.0447L11.6283 0.606081C11.4707 0.238397 11.1092 0 10.7092 0Z" fill="url(#paint0_linear_156_661)"/>
    <g filter="url(#filter0_bi_156_661)">
        <ellipse cx="18.0005" cy="26.5264" rx="15.4737" ry="15.4737" fill="#F1F1F1" fill-opacity="0.1"/>
        <ellipse cx="18.0005" cy="26.5264" rx="15.4737" ry="15.4737" fill="url(#paint1_linear_156_661)" fill-opacity="0.2"/>
        <path d="M33.3742 26.5264C33.3742 35.017 26.4912 41.9001 18.0005 41.9001C9.50989 41.9001 2.62686 35.017 2.62686 26.5264C2.62686 18.0357 9.50989 11.1527 18.0005 11.1527C26.4912 11.1527 33.3742 18.0357 33.3742 26.5264Z" stroke="url(#paint2_linear_156_661)" stroke-opacity="0.1" stroke-width="0.2"/>
    </g>
    <g filter="url(#filter1_i_156_661)">
        <path d="M17.7142 16.3518C17.804 16.0754 18.195 16.0754 18.2848 16.3518L20.4809 23.1108H27.5878C27.8785 23.1108 27.9993 23.4827 27.7642 23.6535L22.0146 27.8309L24.2107 34.5899C24.3005 34.8663 23.9842 35.0962 23.7491 34.9253L17.9995 30.748L12.2499 34.9253C12.0148 35.0962 11.6984 34.8663 11.7882 34.5899L13.9844 27.8309L8.23476 23.6535C7.99965 23.4827 8.12048 23.1108 8.4111 23.1108H15.518L17.7142 16.3518Z" fill="white" fill-opacity="0.16"/>
    </g>
    <defs>
        <filter id="filter0_bi_156_661" x="-0.473145" y="8.05269" width="36.9473" height="36.9474" filterUnits="userSpaceOnUse" color-interpolation-filters="sRGB">
            <feFlood flood-opacity="0" result="BackgroundImageFix"/>
            <feGaussianBlur in="BackgroundImageFix" stdDeviation="1.5"/>
            <feComposite in2="SourceAlpha" operator="in" result="effect1_backgroundBlur_156_661"/>
            <feBlend mode="normal" in="SourceGraphic" in2="effect1_backgroundBlur_156_661" result="shape"/>
            <feColorMatrix in="SourceAlpha" type="matrix" values="0 0 0 0 0 0 0 0 0 0 0 0 0 0 0 0 0 0 127 0" result="hardAlpha"/>
            <feOffset dy="0.5"/>
            <feGaussianBlur stdDeviation="1"/>
            <feComposite in2="hardAlpha" operator="arithmetic" k2="-1" k3="1"/>
            <feColorMatrix type="matrix" values="0 0 0 0 1 0 0 0 0 1 0 0 0 0 1 0 0 0 0.4 0"/>
            <feBlend mode="normal" in2="shape" result="effect2_innerShadow_156_661"/>
        </filter>
        <filter id="filter1_i_156_661" x="8.11035" y="16.1445" width="19.7778" height="19.3395" filterUnits="userSpaceOnUse" color-interpolation-filters="sRGB">
            <feFlood flood-opacity="0" result="BackgroundImageFix"/>
            <feBlend mode="normal" in="SourceGraphic" in2="BackgroundImageFix" result="shape"/>
            <feColorMatrix in="SourceAlpha" type="matrix" values="0 0 0 0 0 0 0 0 0 0 0 0 0 0 0 0 0 0 127 0" result="hardAlpha"/>
            <feOffset dy="0.5"/>
            <feGaussianBlur stdDeviation="0.25"/>
            <feComposite in2="hardAlpha" operator="arithmetic" k2="-1" k3="1"/>
            <feColorMatrix type="matrix" values="0 0 0 0 1 0 0 0 0 1 0 0 0 0 1 0 0 0 0.4 0"/>
            <feBlend mode="normal" in2="shape" result="effect1_innerShadow_156_661"/>
        </filter>
        <linearGradient id="paint0_linear_156_661" x1="1.7896" y1="4.42106" x2="39.2385" y2="12.743" gradientUnits="userSpaceOnUse">
            <stop stop-color="#FE82DB"/>
            <stop offset="1" stop-color="#68E4FF"/>
        </linearGradient>
        <linearGradient id="paint1_linear_156_661" x1="3.81633" y1="17.2422" x2="37.5515" y2="21.9276" gradientUnits="userSpaceOnUse">
            <stop stop-color="#FE82DB"/>
            <stop offset="1" stop-color="#68E4FF"/>
        </linearGradient>
        <linearGradient id="paint2_linear_156_661" x1="3.49396" y1="12.4594" x2="33.4742" y2="12.4594" gradientUnits="userSpaceOnUse">
            <stop stop-color="#FD84DC"/>
            <stop offset="1" stop-color="#7FD6FA"/>
        </linearGradient>
    </defs>
</svg>