<svg xmlns="http://www.w3.org/2000/svg" width="46" height="32" viewBox="0 0 46 32" fill="none">
    <path d="M7.25184 23.5724C7.4407 23.3206 7.73708 23.1724 8.05184 23.1724H37.9484C38.2632 23.1724 38.5595 23.3206 38.7484 23.5724L44.1091 30.72C44.5046 31.2474 44.1283 32 43.4691 32H2.53115C1.87191 32 1.49561 31.2474 1.89115 30.72L7.25184 23.5724Z" fill="url(#paint0_linear_156_669)"/>
    <path d="M32.224 0.707107C32.6146 0.316582 33.2477 0.316583 33.6383 0.707107L38.8447 5.91358C39.2353 6.30411 39.2353 6.93727 38.8447 7.3278L32.5348 13.6377C32.1443 14.0282 31.5111 14.0282 31.1206 13.6377L25.9141 8.43124C25.5236 8.04072 25.5236 7.40756 25.9141 7.01703L32.224 0.707107Z" fill="url(#paint1_linear_156_669)"/>
    <g filter="url(#filter0_bi_156_669)">
        <path d="M28.9139 1.81056L12.2587 18.4657C12.0712 18.6533 11.9658 18.9076 11.9658 19.1728V26.5862C11.9658 27.1385 12.4135 27.5862 12.9658 27.5862H20.3792C20.6444 27.5862 20.8988 27.4809 21.0863 27.2933L37.7415 10.6381C38.132 10.2476 38.132 9.61446 37.7415 9.22393L30.3281 1.81056C29.9376 1.42004 29.3044 1.42004 28.9139 1.81056Z" fill="#F1F1F1" fill-opacity="0.1"/>
        <path d="M28.9139 1.81056L12.2587 18.4657C12.0712 18.6533 11.9658 18.9076 11.9658 19.1728V26.5862C11.9658 27.1385 12.4135 27.5862 12.9658 27.5862H20.3792C20.6444 27.5862 20.8988 27.4809 21.0863 27.2933L37.7415 10.6381C38.132 10.2476 38.132 9.61446 37.7415 9.22393L30.3281 1.81056C29.9376 1.42004 29.3044 1.42004 28.9139 1.81056Z" fill="url(#paint2_linear_156_669)" fill-opacity="0.2"/>
        <path d="M12.3294 18.5364L28.9846 1.88127C29.3361 1.5298 29.9059 1.5298 30.2574 1.88127L37.6708 9.29465C38.0222 9.64612 38.0222 10.216 37.6708 10.5674L21.0156 27.2226C20.8468 27.3914 20.6179 27.4862 20.3792 27.4862H12.9658C12.4688 27.4862 12.0658 27.0833 12.0658 26.5862V19.1728C12.0658 18.9341 12.1606 18.7052 12.3294 18.5364Z" stroke="url(#paint3_linear_156_669)" stroke-opacity="0.1" stroke-width="0.2"/>
    </g>
    <defs>
        <filter id="filter0_bi_156_669" x="8.96582" y="-1.48233" width="32.0684" height="32.0685" filterUnits="userSpaceOnUse" color-interpolation-filters="sRGB">
            <feFlood flood-opacity="0" result="BackgroundImageFix"/>
            <feGaussianBlur in="BackgroundImageFix" stdDeviation="1.5"/>
            <feComposite in2="SourceAlpha" operator="in" result="effect1_backgroundBlur_156_669"/>
            <feBlend mode="normal" in="SourceGraphic" in2="effect1_backgroundBlur_156_669" result="shape"/>
            <feColorMatrix in="SourceAlpha" type="matrix" values="0 0 0 0 0 0 0 0 0 0 0 0 0 0 0 0 0 0 127 0" result="hardAlpha"/>
            <feOffset dy="0.5"/>
            <feGaussianBlur stdDeviation="1"/>
            <feComposite in2="hardAlpha" operator="arithmetic" k2="-1" k3="1"/>
            <feColorMatrix type="matrix" values="0 0 0 0 1 0 0 0 0 1 0 0 0 0 1 0 0 0 0.4 0"/>
            <feBlend mode="normal" in2="shape" result="effect2_innerShadow_156_669"/>
        </filter>
        <linearGradient id="paint0_linear_156_669" x1="2.77023" y1="24.9379" x2="35.8564" y2="47.9145" gradientUnits="userSpaceOnUse">
            <stop stop-color="#FE82DB"/>
            <stop offset="1" stop-color="#68E4FF"/>
        </linearGradient>
        <linearGradient id="paint1_linear_156_669" x1="31.6622" y1="1.82069" x2="38.0522" y2="9.93773" gradientUnits="userSpaceOnUse">
            <stop stop-color="#FE82DB"/>
            <stop offset="1" stop-color="#68E4FF"/>
        </linearGradient>
        <linearGradient id="paint2_linear_156_669" x1="13.0693" y1="6.40001" x2="41.9377" y2="10.4095" gradientUnits="userSpaceOnUse">
            <stop stop-color="#FE82DB"/>
            <stop offset="1" stop-color="#68E4FF"/>
        </linearGradient>
        <linearGradient id="paint3_linear_156_669" x1="12.7934" y1="2.30722" x2="38.4486" y2="2.30722" gradientUnits="userSpaceOnUse">
            <stop stop-color="#FD84DC"/>
            <stop offset="1" stop-color="#7FD6FA"/>
        </linearGradient>
    </defs>
</svg>