<svg width="103" height="16" viewBox="0 0 103 16" fill="none" xmlns="http://www.w3.org/2000/svg">
<g id="Group 5">
<path id="Vector" d="M96.9912 2.58837H93.4784C93.312 2.58837 93.2011 2.6993 93.2011 2.86569V3.23546C93.2011 3.40185 93.312 3.51279 93.4784 3.51279H96.9912C97.1576 3.51279 97.2685 3.40185 97.2685 3.23546V2.86569C97.2685 2.6993 97.1576 2.58837 96.9912 2.58837ZM87.6546 14.236V10.5199C87.6546 9.55847 88.7639 8.85591 90.4279 8.85591C92.0918 8.85591 93.2011 9.52149 93.2011 10.5199V12.2947C93.2011 12.4611 93.312 12.5721 93.4784 12.5721H102.26C102.575 12.5721 102.815 12.7939 102.815 13.1267V14.236C102.815 14.9016 102.371 15.3453 101.706 15.3453H88.7639C88.0983 15.3453 87.6546 14.9016 87.6546 14.236ZM98.0081 6.56336V6.84069H102.445C102.815 6.84069 103 7.02557 103 7.39534V9.05929C103 9.42905 102.815 9.61394 102.445 9.61394H93.5154C93.0532 8.80045 91.9254 8.30126 90.4279 8.30126C89.0967 8.30126 88.0614 8.68952 87.5252 9.3551C87.4882 9.26266 87.4697 9.17022 87.4697 9.05929V7.39534C87.4697 7.02557 87.6546 6.84069 88.0244 6.84069H92.4616V6.56336C92.4616 5.56499 93.5709 4.89941 95.2348 4.89941C96.8988 4.89941 98.0081 5.56499 98.0081 6.56336ZM91.9624 6.10115H88.7639C88.0983 6.10115 87.6546 5.65743 87.6546 4.99185V1.1093C87.6546 0.443721 88.0983 0 88.7639 0H101.706C102.371 0 102.815 0.443721 102.815 1.1093V4.99185C102.815 5.65743 102.371 6.10115 101.706 6.10115H98.5073C98.2299 5.02883 96.9912 4.34476 95.2348 4.34476C93.4784 4.34476 92.2397 5.02883 91.9624 6.10115Z" fill="#D5D5D5"/>
<path id="Vector_2" d="M85.7988 14.7907H71.3779C71.0081 14.7907 70.8232 14.6058 70.8232 14.236V12.5721C70.8232 12.2023 71.0081 12.0174 71.3779 12.0174H73.2267C73.4116 12.0174 73.504 11.925 73.504 11.7401V8.50464C73.504 7.50626 74.6134 6.84069 76.2773 6.84069C77.9413 6.84069 79.0506 7.50626 79.0506 8.50464V11.7401C79.0506 11.925 79.143 12.0174 79.3279 12.0174H85.7988C86.1686 12.0174 86.3534 12.2023 86.3534 12.5721V14.236C86.3534 14.6058 86.1686 14.7907 85.7988 14.7907ZM86.0761 1.1093V8.31975C86.0761 9.31812 84.9668 9.9837 83.3029 9.9837C81.6389 9.9837 80.5296 9.31812 80.5296 8.31975V7.39533H79.2354C78.6993 6.71127 77.6454 6.28604 76.2773 6.28604C74.9092 6.28604 73.8553 6.71127 73.3192 7.39533H71.6552C71.2855 7.39533 71.1006 7.21045 71.1006 6.84069V5.17673C71.1006 4.84394 71.3224 4.62208 71.6552 4.62208H80.5296V3.05058C80.5296 2.88418 80.4187 2.77325 80.2523 2.77325H71.4703C71.1375 2.77325 70.9157 2.55139 70.9157 2.2186V1.1093C70.9157 0.44372 71.3594 0 72.025 0H84.9668C85.6324 0 86.0761 0.44372 86.0761 1.1093Z" fill="#D5D5D5"/>
<path id="Vector_3" d="M58.0469 2.14189L60.7123 6.74856V2.00322C60.7123 1.7259 60.8971 1.54102 61.1745 1.54102H64.4099C64.9646 1.54102 65.3343 1.91078 65.3343 2.46543V13.0192C65.3343 13.8512 64.4099 14.4058 63.0233 14.4058C61.8832 14.4058 61.0666 14.0361 60.8047 13.4506L57.6309 7.95031V13.0192C57.6309 13.8512 56.7065 14.4058 55.3198 14.4058C53.9332 14.4058 53.0088 13.8512 53.0088 13.0192V2.46543C53.0088 1.91078 53.3786 1.54102 53.9332 1.54102H57.0146C57.4768 1.54102 57.8158 1.74131 58.0469 2.14189Z" fill="#D5D5D5"/>
<path id="Vector_4" d="M45.7614 12.1718C46.8707 12.1718 47.6103 11.0933 47.6103 7.9349C47.6103 4.77648 46.8707 3.69799 45.7614 3.69799C44.6521 3.69799 43.9126 4.77648 43.9126 7.9349C43.9126 11.0933 44.6521 12.1718 45.7614 12.1718ZM39.2905 7.9349C39.2905 3.15875 41.8789 1.54102 45.7614 1.54102C49.644 1.54102 52.2324 3.15875 52.2324 7.9349C52.2324 12.7111 49.644 14.3288 45.7614 14.3288C41.8789 14.3288 39.2905 12.7111 39.2905 7.9349Z" fill="#F15CA7"/>
<path id="Vector_5" d="M25.2705 2.46543C25.2705 1.91078 25.6403 1.54102 26.1949 1.54102H28.9682C29.3688 1.54102 29.6769 1.74131 29.8156 2.04944L31.8955 8.84391L33.9754 2.04944C34.1141 1.74131 34.4222 1.54102 34.8228 1.54102H37.5961C38.1507 1.54102 38.5205 1.91078 38.5205 2.46543V13.0192C38.5205 13.8512 37.7809 14.4058 36.6716 14.4058C35.5623 14.4058 34.8228 13.8512 34.8228 13.0192V9.21368L33.6211 13.3273C33.4362 13.9744 32.7429 14.4058 31.8955 14.4058C31.0481 14.4058 30.3548 13.9744 30.1699 13.3273L28.9682 9.21368V13.0192C28.9682 13.8512 28.2286 14.4058 27.1193 14.4058C26.01 14.4058 25.2705 13.8512 25.2705 13.0192V2.46543Z" fill="#D5D5D5"/>
<path id="Vector_6" d="M18.0232 12.1718C19.1325 12.1718 19.872 11.0933 19.872 7.9349C19.872 4.77648 19.1325 3.69799 18.0232 3.69799C16.9139 3.69799 16.1743 4.77648 16.1743 7.9349C16.1743 11.0933 16.9139 12.1718 18.0232 12.1718ZM11.5522 7.9349C11.5522 3.15875 14.1406 1.54102 18.0232 1.54102C21.9057 1.54102 24.4941 3.15875 24.4941 7.9349C24.4941 12.7111 21.9057 14.3288 18.0232 14.3288C14.1406 14.3288 11.5522 12.7111 11.5522 7.9349Z" fill="#8488EC"/>
<path id="Vector_7" d="M8.01161 1.54102H10.7849C11.1546 1.54102 11.4011 1.97241 11.4011 2.6195C11.4011 3.26659 11.1546 3.69799 10.7849 3.69799H8.62789C6.23981 3.69799 4.62209 4.76107 4.62209 7.88868C4.62209 11.0317 6.23981 12.0948 8.62789 12.0948H10.7849C11.1546 12.0948 11.4011 12.5262 11.4011 13.1733C11.4011 13.8204 11.1546 14.2517 10.7849 14.2517H8.01161C3.17383 14.2517 0 12.634 0 7.88868C0 3.15875 3.17383 1.54102 8.01161 1.54102Z" fill="#D5D5D5"/>
</g>
</svg>
