<svg width="464" height="82" viewBox="0 0 464 82" fill="none" xmlns="http://www.w3.org/2000/svg">
<path d="M77.89 78.24H3.01C1.09 78.24 0.13 77.28 0.13 75.36V66.72C0.13 64.8 1.09 63.84 3.01 63.84H12.61C13.57 63.84 14.05 63.36 14.05 62.4V45.6C14.05 40.416 19.81 36.96 28.45 36.96C37.09 36.96 42.85 40.416 42.85 45.6V62.4C42.85 63.36 43.33 63.84 44.29 63.84H77.89C79.81 63.84 80.77 64.8 80.77 66.72V75.36C80.77 77.28 79.81 78.24 77.89 78.24ZM79.33 7.2V44.64C79.33 49.824 73.57 53.28 64.93 53.28C56.29 53.28 50.53 49.824 50.53 44.64V39.84H43.81C41.026 36.288 35.554 34.08 28.45 34.08C21.346 34.08 15.874 36.288 13.09 39.84H4.45C2.53 39.84 1.57 38.88 1.57 36.96V28.32C1.57 26.592 2.722 25.44 4.45 25.44H50.53V17.28C50.53 16.416 49.954 15.84 49.09 15.84H3.49C1.762 15.84 0.61 14.688 0.61 12.96V7.2C0.61 3.744 2.914 1.44 6.37 1.44H73.57C77.026 1.44 79.33 3.744 79.33 7.2ZM162.408 51.84H93.2875C89.8315 51.84 87.5275 49.536 87.5275 46.08V6.23999C87.5275 2.784 89.8315 0.479994 93.2875 0.479994H161.928C164.808 0.479994 166.728 3.36 166.728 7.68C166.728 12 164.808 14.88 161.928 14.88H117.768C116.808 14.88 116.328 15.36 116.328 16.32V36C116.328 36.96 116.808 37.44 117.768 37.44H162.408C165.288 37.44 167.208 40.32 167.208 44.64C167.208 48.96 165.288 51.84 162.408 51.84ZM164.328 78.24H89.4475C87.5275 78.24 86.5675 77.28 86.5675 75.36V66.72C86.5675 64.8 87.5275 63.84 89.4475 63.84H164.328C166.248 63.84 167.208 64.8 167.208 66.72V75.36C167.208 77.28 166.248 78.24 164.328 78.24ZM222.445 13.92H204.205C203.341 13.92 202.765 14.496 202.765 15.36V17.28C202.765 18.144 203.341 18.72 204.205 18.72H222.445C223.309 18.72 223.885 18.144 223.885 17.28V15.36C223.885 14.496 223.309 13.92 222.445 13.92ZM173.965 74.4V55.104C173.965 50.112 179.725 46.464 188.365 46.464C197.005 46.464 202.765 49.92 202.765 55.104V64.32C202.765 65.184 203.341 65.76 204.205 65.76H249.805C251.437 65.76 252.685 66.912 252.685 68.64V74.4C252.685 77.856 250.381 80.16 246.925 80.16H179.725C176.269 80.16 173.965 77.856 173.965 74.4ZM227.725 34.56V36H250.765C252.685 36 253.645 36.96 253.645 38.88V47.52C253.645 49.44 252.685 50.4 250.765 50.4H204.397C201.997 46.176 196.141 43.584 188.365 43.584C181.453 43.584 176.077 45.6 173.293 49.056C173.101 48.576 173.005 48.096 173.005 47.52V38.88C173.005 36.96 173.965 36 175.885 36H198.925V34.56C198.925 29.376 204.685 25.92 213.325 25.92C221.965 25.92 227.725 29.376 227.725 34.56ZM196.333 32.16H179.725C176.269 32.16 173.965 29.856 173.965 26.4V6.23999C173.965 2.784 176.269 0.479994 179.725 0.479994H246.925C250.381 0.479994 252.685 2.784 252.685 6.23999V26.4C252.685 29.856 250.381 32.16 246.925 32.16H230.317C228.877 26.592 222.445 23.04 213.325 23.04C204.205 23.04 197.773 26.592 196.333 32.16ZM337.203 78.24H262.323C260.403 78.24 259.443 77.28 259.443 75.36V66.72C259.443 64.8 260.403 63.84 262.323 63.84H337.203C339.123 63.84 340.083 64.8 340.083 66.72V75.36C340.083 77.28 339.123 78.24 337.203 78.24ZM336.243 52.32H329.523C316.851 52.32 306.483 48.768 299.763 42.528C293.043 48.768 282.675 52.32 270.003 52.32H263.283C261.555 52.32 260.403 51.168 260.403 49.44V40.8C260.403 39.072 261.555 37.92 263.283 37.92H270.003C279.219 37.92 285.363 31.776 285.363 22.56V6.72C285.363 3.264 287.667 0.959999 291.123 0.959999H308.403C311.859 0.959999 314.163 3.264 314.163 6.72V22.56C314.163 31.776 320.307 37.92 329.523 37.92H336.243C337.971 37.92 339.123 39.072 339.123 40.8V49.44C339.123 51.168 337.971 52.32 336.243 52.32ZM381.976 33.6C381.016 35.328 380.44 37.632 380.44 40.32C380.44 43.008 381.016 45.312 381.976 47.04H370.36C369.496 47.04 368.92 47.616 368.92 48.48V65.28C368.92 66.144 369.496 66.72 370.36 66.72H391C393.304 66.72 394.84 69.408 394.84 73.44C394.84 77.472 393.304 80.16 391 80.16H351.64C348.184 80.16 345.88 77.856 345.88 74.4V6.72C345.88 3.264 348.184 0.959999 351.64 0.959999H390.52C392.824 0.959999 394.36 3.648 394.36 7.68C394.36 11.712 392.824 14.4 390.52 14.4H370.36C369.496 14.4 368.92 14.976 368.92 15.84V32.16C368.92 33.024 369.496 33.6 370.36 33.6H381.976ZM426.52 6.72V72.48C426.52 77.664 420.76 81.12 412.12 81.12C403.48 81.12 397.72 77.664 397.72 72.48V47.52H387.16C384.856 47.52 383.32 44.64 383.32 40.32C383.32 36 384.856 33.12 387.16 33.12H397.72V3.84C397.72 2.112 398.872 0.959999 400.6 0.959999H420.76C424.216 0.959999 426.52 3.264 426.52 6.72ZM463.038 6.72V41.76C463.038 46.944 457.661 50.4 449.598 50.4C441.534 50.4 436.158 46.944 436.158 41.76V3.84C436.158 2.112 437.31 0.959999 439.038 0.959999H457.278C460.734 0.959999 463.038 3.264 463.038 6.72ZM436.158 67.68C436.158 60.288 442.206 54.24 449.598 54.24C456.99 54.24 463.038 60.288 463.038 67.68C463.038 75.072 456.99 81.12 449.598 81.12C442.206 81.12 436.158 75.072 436.158 67.68Z" fill="#282828"/>
</svg>
