<svg width="22" height="21" viewBox="0 0 22 21" fill="none" xmlns="http://www.w3.org/2000/svg">
<path fill-rule="evenodd" clip-rule="evenodd" d="M11.9019 0.415475C11.3065 0.296404 10.6935 0.296404 10.0981 0.415475C8.77522 0.680056 7.63523 1.5122 6.98005 2.69153L0.794132 13.8262C0.437271 14.4685 0.25 15.1912 0.25 15.926C0.25 18.3141 2.18588 20.25 4.57391 20.25H17.4261C19.8141 20.25 21.75 18.3141 21.75 15.926C21.75 15.1912 21.5627 14.4685 21.2059 13.8262L15.02 2.69153C14.3648 1.5122 13.2248 0.680056 11.9019 0.415475ZM11 11.75C10.5858 11.75 10.25 11.4142 10.25 11V7C10.25 6.58579 10.5858 6.25 11 6.25C11.4142 6.25 11.75 6.58579 11.75 7V11C11.75 11.4142 11.4142 11.75 11 11.75ZM11.75 14.5C11.75 14.9142 11.4142 15.25 11 15.25C10.5858 15.25 10.25 14.9142 10.25 14.5V14C10.25 13.5858 10.5858 13.25 11 13.25C11.4142 13.25 11.75 13.5858 11.75 14V14.5Z" fill="#777777"/>
</svg>
