<svg width="124" height="24" viewBox="0 0 124 24" fill="none" xmlns="http://www.w3.org/2000/svg">
<path d="M113.771 6.03614H109.651C109.456 6.03614 109.325 6.16626 109.325 6.36145V6.79518C109.325 6.99036 109.456 7.12048 109.651 7.12048H113.771C113.966 7.12048 114.097 6.99036 114.097 6.79518V6.36145C114.097 6.16626 113.966 6.03614 113.771 6.03614ZM102.819 19.6988V15.3398C102.819 14.212 104.121 13.388 106.072 13.388C108.024 13.388 109.325 14.1687 109.325 15.3398V17.4217C109.325 17.6169 109.456 17.747 109.651 17.747H119.952C120.321 17.747 120.603 18.0072 120.603 18.3976V19.6988C120.603 20.4795 120.082 21 119.301 21H104.121C103.34 21 102.819 20.4795 102.819 19.6988ZM114.964 10.6988V11.0241H120.169C120.603 11.0241 120.819 11.241 120.819 11.6747V13.6265C120.819 14.0602 120.603 14.2771 120.169 14.2771H109.694C109.152 13.3229 107.829 12.7373 106.072 12.7373C104.511 12.7373 103.297 13.1928 102.668 13.9735C102.624 13.8651 102.603 13.7566 102.603 13.6265V11.6747C102.603 11.241 102.819 11.0241 103.253 11.0241H108.458V10.6988C108.458 9.52771 109.759 8.74699 111.711 8.74699C113.663 8.74699 114.964 9.52771 114.964 10.6988ZM107.872 10.1566H104.121C103.34 10.1566 102.819 9.63614 102.819 8.85542V4.3012C102.819 3.52048 103.34 3 104.121 3H119.301C120.082 3 120.603 3.52048 120.603 4.3012V8.85542C120.603 9.63614 120.082 10.1566 119.301 10.1566H115.55C115.224 8.89879 113.771 8.09638 111.711 8.09638C109.651 8.09638 108.198 8.89879 107.872 10.1566Z" fill="#3D3D3D"/>
<path d="M100.642 20.3494H83.7268C83.293 20.3494 83.0762 20.1325 83.0762 19.6988V17.747C83.0762 17.3133 83.293 17.0964 83.7268 17.0964H85.8955C86.1123 17.0964 86.2207 16.988 86.2207 16.7711V12.9759C86.2207 11.8048 87.522 11.0241 89.4738 11.0241C91.4256 11.0241 92.7268 11.8048 92.7268 12.9759V16.7711C92.7268 16.988 92.8352 17.0964 93.0521 17.0964H100.642C101.076 17.0964 101.293 17.3133 101.293 17.747V19.6988C101.293 20.1325 101.076 20.3494 100.642 20.3494ZM100.968 4.3012V12.759C100.968 13.9301 99.6665 14.7108 97.7147 14.7108C95.7629 14.7108 94.4617 13.9301 94.4617 12.759V11.6747H92.9436C92.3147 10.8723 91.0786 10.3735 89.4738 10.3735C87.8689 10.3735 86.6328 10.8723 86.0039 11.6747H84.0521C83.6183 11.6747 83.4015 11.4578 83.4015 11.0241V9.07229C83.4015 8.68193 83.6617 8.42169 84.0521 8.42169H94.4617V6.57831C94.4617 6.38313 94.3316 6.25301 94.1364 6.25301H83.8352C83.4448 6.25301 83.1846 5.99277 83.1846 5.60241V4.3012C83.1846 3.52048 83.7051 3 84.4858 3H99.6665C100.447 3 100.968 3.52048 100.968 4.3012Z" fill="#3D3D3D"/>
<path d="M68.0898 5.51146L71.2163 10.9151V5.34881C71.2163 5.02351 71.4332 4.80664 71.7585 4.80664H75.5537C76.2043 4.80664 76.638 5.24038 76.638 5.89098V18.2705C76.638 19.2464 75.5537 19.897 73.9272 19.897C72.5898 19.897 71.632 19.4633 71.3248 18.7765L67.6019 12.3247V18.2705C67.6019 19.2464 66.5175 19.897 64.891 19.897C63.2645 19.897 62.1802 19.2464 62.1802 18.2705V5.89098C62.1802 5.24038 62.6139 4.80664 63.2645 4.80664H66.879C67.4211 4.80664 67.8187 5.04158 68.0898 5.51146Z" fill="#3D3D3D"/>
<path d="M53.6783 17.2765C54.9795 17.2765 55.8469 16.0115 55.8469 12.3066C55.8469 8.60182 54.9795 7.33676 53.6783 7.33676C52.377 7.33676 51.5096 8.60182 51.5096 12.3066C51.5096 16.0115 52.377 17.2765 53.6783 17.2765ZM46.0879 12.3066C46.0879 6.70423 49.124 4.80664 53.6783 4.80664C58.2325 4.80664 61.2686 6.70423 61.2686 12.3066C61.2686 17.9091 58.2325 19.8066 53.6783 19.8066C49.124 19.8066 46.0879 17.9091 46.0879 12.3066Z" fill="#F15CA7"/>
<path d="M29.6426 5.89098C29.6426 5.24038 30.0763 4.80664 30.7269 4.80664H33.9799C34.4498 4.80664 34.8113 5.04158 34.9739 5.40303L37.4137 13.3729L39.8534 5.40303C40.0161 5.04158 40.3775 4.80664 40.8474 4.80664H44.1004C44.751 4.80664 45.1847 5.24038 45.1847 5.89098V18.2705C45.1847 19.2464 44.3173 19.897 43.0161 19.897C41.7149 19.897 40.8474 19.2464 40.8474 18.2705V13.8066L39.4378 18.6319C39.2209 19.391 38.4076 19.897 37.4137 19.897C36.4197 19.897 35.6064 19.391 35.3896 18.6319L33.9799 13.8066V18.2705C33.9799 19.2464 33.1125 19.897 31.8113 19.897C30.51 19.897 29.6426 19.2464 29.6426 18.2705V5.89098Z" fill="#3D3D3D"/>
<path d="M21.1411 17.2765C22.4423 17.2765 23.3098 16.0115 23.3098 12.3066C23.3098 8.60182 22.4423 7.33676 21.1411 7.33676C19.8399 7.33676 18.9725 8.60182 18.9725 12.3066C18.9725 16.0115 19.8399 17.2765 21.1411 17.2765ZM13.5508 12.3066C13.5508 6.70423 16.5869 4.80664 21.1411 4.80664C25.6954 4.80664 28.7315 6.70423 28.7315 12.3066C28.7315 17.9091 25.6954 19.8066 21.1411 19.8066C16.5869 19.8066 13.5508 17.9091 13.5508 12.3066Z" fill="#8488EC"/>
<path d="M9.39759 4.80664H12.6506C13.0843 4.80664 13.3735 5.31266 13.3735 6.0717C13.3735 6.83074 13.0843 7.33676 12.6506 7.33676H10.1205C7.31928 7.33676 5.42169 8.58375 5.42169 12.2524C5.42169 15.9392 7.31928 17.1862 10.1205 17.1862H12.6506C13.0843 17.1862 13.3735 17.6922 13.3735 18.4512C13.3735 19.2103 13.0843 19.7163 12.6506 19.7163H9.39759C3.72289 19.7163 0 17.8187 0 12.2524C0 6.70423 3.72289 4.80664 9.39759 4.80664Z" fill="#3D3D3D"/>
</svg>
