<svg width="16" height="20" viewBox="0 0 16 20" fill="none" xmlns="http://www.w3.org/2000/svg">
<rect width="16" height="20" fill="#CCCCCC"/>
<g id="GNB">
<path d="M-1546 -637H4195V-639H-1546V-637ZM4196 -636V3011H4198V-636H4196ZM4195 3012H-1546V3014H4195V3012ZM-1547 3011V-636H-1549V3011H-1547ZM-1546 3012C-1546.55 3012 -1547 3011.55 -1547 3011H-1549C-1549 3012.66 -1547.66 3014 -1546 3014V3012ZM4196 3011C4196 3011.55 4195.55 3012 4195 3012V3014C4196.66 3014 4198 3012.66 4198 3011H4196ZM4195 -637C4195.55 -637 4196 -636.552 4196 -636H4198C4198 -637.657 4196.66 -639 4195 -639V-637ZM-1546 -639C-1547.66 -639 -1549 -637.657 -1549 -636H-1547C-1547 -636.552 -1546.55 -637 -1546 -637V-639Z" fill="black"/>
<g id="GNB_2">
<rect x="-1329.5" y="-234.5" width="1479" height="395" rx="4.5" stroke="#9747FF" stroke-dasharray="10 5"/>
<g id="Property 1=Variant3">
<rect x="-1310" y="-27" width="1440" height="74" rx="2" fill="white"/>
<g id="Frame 38480">
<g id="Iconex/Light/User">
<g id="User">
<circle id="Ellipse 33" cx="4" cy="4" r="4" transform="matrix(-1 0 0 1 12 1)" stroke="#636363" stroke-width="1.7"/>
<path id="Rectangle 2" d="M1 14.9347C1 14.0743 1.54085 13.3068 2.35109 13.0175V13.0175C6.00404 11.7128 9.99596 11.7128 13.6489 13.0175V13.0175C14.4591 13.3068 15 14.0743 15 14.9347V16.2502C15 17.4376 13.9483 18.3498 12.7728 18.1818L11.8184 18.0455C9.28565 17.6837 6.71435 17.6837 4.18162 18.0455L3.22721 18.1818C2.0517 18.3498 1 17.4376 1 16.2502V14.9347Z" stroke="#636363" stroke-width="1.7"/>
</g>
</g>
</g>
</g>
</g>
</g>
</svg>
