<svg width="18" height="18" viewBox="0 0 18 18" fill="none" xmlns="http://www.w3.org/2000/svg">
<path fill-rule="evenodd" clip-rule="evenodd" d="M0 9C0 4.02944 4.02944 0 9 0C13.9706 0 18 4.02944 18 9C18 13.9706 13.9706 18 9 18C7.42021 18 5.93373 17.5924 4.64192 16.8762C4.56287 16.8324 4.48596 16.8305 4.43113 16.8499L2.31919 17.5961C1.02521 18.0534 -0.221251 16.8069 0.235989 15.5129L1.01315 13.3136C1.0318 13.2608 1.03094 13.1871 0.991289 13.11C0.357466 11.8773 0 10.4795 0 9ZM4.85588 10.0889C5.43385 10.0889 5.90239 9.6204 5.90239 9.04242C5.90239 8.46445 5.43385 7.99591 4.85588 7.99591C4.2779 7.99591 3.80937 8.46445 3.80937 9.04242C3.80937 9.6204 4.2779 10.0889 4.85588 10.0889ZM10.0884 9.04242C10.0884 9.6204 9.6199 10.0889 9.04192 10.0889C8.46395 10.0889 7.99541 9.6204 7.99541 9.04242C7.99541 8.46445 8.46395 7.99591 9.04192 7.99591C9.6199 7.99591 10.0884 8.46445 10.0884 9.04242ZM13.228 10.0889C13.8059 10.0889 14.2745 9.6204 14.2745 9.04242C14.2745 8.46445 13.8059 7.99591 13.228 7.99591C12.65 7.99591 12.1815 8.46445 12.1815 9.04242C12.1815 9.6204 12.65 10.0889 13.228 10.0889Z" fill="#333333"/>
</svg>
