<svg width="25" height="24" viewBox="0 0 25 24" fill="none" xmlns="http://www.w3.org/2000/svg">
<path d="M10.5 16.5352C9.09992 16.5352 7.96493 15.4003 7.96493 14.0002C7.96493 12.6001 9.09992 11.4651 10.5 11.4651C11.9001 11.4651 13.0351 12.6001 13.0351 14.0002C13.0351 15.4003 11.9001 16.5352 10.5 16.5352Z" fill="#CCCCCC"/>
<g filter="url(#filter0_bi_2976_1333)">
<path d="M20.4589 5.36644C20.685 4.55901 19.941 3.815 19.1336 4.04108L4.28569 8.19849C3.3901 8.44925 3.21369 9.64177 3.99833 10.1411L10.1282 14.0419C10.261 14.1264 10.3736 14.239 10.4581 14.3718L14.3589 20.5017C14.8582 21.2863 16.0507 21.1099 16.3015 20.2143L20.4589 5.36644Z" fill="#CCCCCC"/>
<path d="M19.1605 4.13738C19.8929 3.93232 20.5677 4.60714 20.3626 5.33948L16.2052 20.1874C15.9778 20.9996 14.8962 21.1596 14.4433 20.448L10.5425 14.3181C10.4501 14.173 10.327 14.0499 10.1819 13.9575L4.05201 10.0567C3.34035 9.60384 3.50035 8.52223 4.31265 8.29478L19.1605 4.13738Z" stroke="#CCCCCC" stroke-width="0.2"/>
</g>
<g filter="url(#filter1_i_2976_1333)">
<path fill-rule="evenodd" clip-rule="evenodd" d="M18.9816 5.86531C19.0561 6.13123 18.9009 6.40715 18.6349 6.48161L6.13494 9.98161C5.86903 10.0561 5.5931 9.90086 5.51865 9.63494C5.44419 9.36903 5.5994 9.0931 5.86531 9.01865L18.3653 5.51865C18.6312 5.44419 18.9072 5.5994 18.9816 5.86531Z" fill="white" fill-opacity="0.16"/>
</g>
<defs>
<filter id="filter0_bi_2976_1333" x="0.5" y="1" width="23" height="23" filterUnits="userSpaceOnUse" color-interpolation-filters="sRGB">
<feFlood flood-opacity="0" result="BackgroundImageFix"/>
<feGaussianBlur in="BackgroundImageFix" stdDeviation="1.5"/>
<feComposite in2="SourceAlpha" operator="in" result="effect1_backgroundBlur_2976_1333"/>
<feBlend mode="normal" in="SourceGraphic" in2="effect1_backgroundBlur_2976_1333" result="shape"/>
<feColorMatrix in="SourceAlpha" type="matrix" values="0 0 0 0 0 0 0 0 0 0 0 0 0 0 0 0 0 0 127 0" result="hardAlpha"/>
<feOffset dy="0.5"/>
<feGaussianBlur stdDeviation="1"/>
<feComposite in2="hardAlpha" operator="arithmetic" k2="-1" k3="1"/>
<feColorMatrix type="matrix" values="0 0 0 0 1 0 0 0 0 1 0 0 0 0 1 0 0 0 0.4 0"/>
<feBlend mode="normal" in2="shape" result="effect2_innerShadow_2976_1333"/>
</filter>
<filter id="filter1_i_2976_1333" x="5.5" y="5.5" width="13.5" height="5" filterUnits="userSpaceOnUse" color-interpolation-filters="sRGB">
<feFlood flood-opacity="0" result="BackgroundImageFix"/>
<feBlend mode="normal" in="SourceGraphic" in2="BackgroundImageFix" result="shape"/>
<feColorMatrix in="SourceAlpha" type="matrix" values="0 0 0 0 0 0 0 0 0 0 0 0 0 0 0 0 0 0 127 0" result="hardAlpha"/>
<feOffset dy="0.5"/>
<feGaussianBlur stdDeviation="0.25"/>
<feComposite in2="hardAlpha" operator="arithmetic" k2="-1" k3="1"/>
<feColorMatrix type="matrix" values="0 0 0 0 1 0 0 0 0 1 0 0 0 0 1 0 0 0 0.4 0"/>
<feBlend mode="normal" in2="shape" result="effect1_innerShadow_2976_1333"/>
</filter>
</defs>
</svg>
