<svg width="24" height="25" viewBox="0 0 24 25" fill="none" xmlns="http://www.w3.org/2000/svg">
<path fill-rule="evenodd" clip-rule="evenodd" d="M13.337 3.62884C14.5077 2.45638 16.4064 2.45566 17.578 3.62723L20.0699 6.11909C21.2314 7.28067 21.2435 9.16113 20.0969 10.3375L10.8638 19.8108C10.1112 20.5829 9.07905 21.0183 8.00126 21.0183L5.24911 21.0182C3.82773 21.0181 2.6926 19.8332 2.75238 18.412L2.87053 15.603C2.91267 14.6014 3.32896 13.652 4.03705 12.9429L13.337 3.62884ZM16.1649 5.04252C15.7744 4.65199 15.1414 4.65223 14.7512 5.04305L13.1569 6.63975L17.0245 10.6244L18.6657 8.94052C19.0479 8.54839 19.0439 7.92156 18.6567 7.53437L16.1649 5.04252ZM5.45127 14.3571L11.7437 8.05508L15.6282 12.0571L9.43261 18.4138C9.05633 18.7998 8.54024 19.0175 8.00135 19.0175L5.2492 19.0174C4.96492 19.0174 4.7379 18.7804 4.74985 18.4962L4.86801 15.6871C4.88907 15.1863 5.09722 14.7117 5.45127 14.3571ZM20.5149 21.5487C21.0669 21.5487 21.5145 21.1009 21.5145 20.5484C21.5145 19.9959 21.0669 19.548 20.5149 19.548H14.3931C13.8411 19.548 13.3935 19.9959 13.3935 20.5484C13.3935 21.1009 13.8411 21.5487 14.3931 21.5487H20.5149Z" fill="#333333"/>
</svg>
