<svg width="18" height="21" viewBox="0 0 18 21" fill="none" xmlns="http://www.w3.org/2000/svg">
<g id="Trash can">
<path id="Subtract" fill-rule="evenodd" clip-rule="evenodd" d="M3.41743 3.25C1.39121 3.25 0.23461 5.56321 1.45034 7.18418C1.96922 7.87601 2.24971 8.71748 2.24971 9.58228V16C2.24971 18.6234 4.37635 20.75 6.99971 20.75H10.9997C13.6231 20.75 15.7497 18.6234 15.7497 16V9.58228C15.7497 8.71748 16.0302 7.87601 16.5491 7.18418C17.7648 5.56321 16.6082 3.25 14.582 3.25H3.41743ZM10.9995 8.25C11.4137 8.25 11.7495 8.58579 11.7495 9V15C11.7495 15.4142 11.4137 15.75 10.9995 15.75C10.5853 15.75 10.2495 15.4142 10.2495 15V9C10.2495 8.58579 10.5853 8.25 10.9995 8.25ZM7.74951 9C7.74951 8.58579 7.41373 8.25 6.99951 8.25C6.5853 8.25 6.24951 8.58579 6.24951 9L6.24951 15C6.24951 15.4142 6.5853 15.75 6.99951 15.75C7.41372 15.75 7.74951 15.4142 7.74951 15L7.74951 9Z" fill="#FB676A"/>
<path id="Rectangle 4" d="M13 4L12.4558 2.36754C12.1836 1.55086 11.4193 1 10.5585 1H7.44152C6.58066 1 5.81638 1.55086 5.54415 2.36754L5 4" stroke="#FB676A" stroke-width="1.5" stroke-linecap="round"/>
</g>
</svg>
