<svg width="24" height="24" viewBox="0 0 24 24" fill="none" xmlns="http://www.w3.org/2000/svg">
<rect width="24" height="24" fill="#CCCCCC"/>
<g id="Description 5.1, 5.1.1" clip-path="url(#clip0_841_8304)">
<rect width="2100" height="3050" transform="translate(-973 -338)" fill="#E0E0E0"/>
<g id="5.1">
<rect width="1467" height="2239" transform="translate(-940 -263)" fill="white"/>
<g id="Frame 113">
<g id="Frame 112">
<g id="Frame 38244">
<g id="Frame 23" filter="url(#filter0_d_841_8304)">
<rect x="-443" y="-21" width="495" height="70" rx="20" fill="white"/>
<rect x="-442.5" y="-20.5" width="494" height="69" rx="19.5" stroke="#CDCFFF"/>
<g id="Frame 38264">
<g id="Group 38000">
<path id="Vector" d="M3.55078 23.9607H18.5508C19.4805 23.958 20.3711 23.5867 21.0273 22.928C21.6835 22.2694 22.0516 21.3774 22.0508 20.4477V12.9107C22.0508 12.6455 21.9454 12.3911 21.7579 12.2036C21.5704 12.0161 21.316 11.9107 21.0508 11.9107C20.7856 11.9107 20.5312 12.0161 20.3437 12.2036C20.1561 12.3911 20.0508 12.6455 20.0508 12.9107V20.4477C20.0521 20.8471 19.8949 21.2308 19.6137 21.5144C19.3325 21.7981 18.9502 21.9586 18.5508 21.9607H3.55078C3.15136 21.9586 2.76909 21.7981 2.48787 21.5144C2.20665 21.2308 2.04945 20.8471 2.05078 20.4477V5.47369C2.04945 5.07426 2.20665 4.69062 2.48787 4.40697C2.76909 4.12331 3.15136 3.96281 3.55078 3.96069H11.0508C11.316 3.96069 11.5704 3.85534 11.7579 3.6678C11.9454 3.48026 12.0508 3.22591 12.0508 2.96069C12.0508 2.69548 11.9454 2.44112 11.7579 2.25359C11.5704 2.06605 11.316 1.96069 11.0508 1.96069H3.55078C2.62109 1.96334 1.73042 2.33472 1.07424 2.99334C0.418063 3.65195 0.0499842 4.54399 0.0507825 5.47369V20.4477C0.0499842 21.3774 0.418063 22.2694 1.07424 22.928C1.73042 23.5867 2.62109 23.958 3.55078 23.9607Z" fill="#8488EC"/>
<path id="Vector_2" d="M9.50528 10.5048L8.71628 14.1188C8.68057 14.2827 8.68667 14.453 8.73403 14.6139C8.78138 14.7749 8.86848 14.9213 8.98728 15.0398C9.10772 15.1553 9.25422 15.24 9.41437 15.2868C9.57452 15.3337 9.7436 15.3412 9.90728 15.3088L13.5133 14.5178C13.7005 14.4767 13.872 14.3826 14.0073 14.2468L23.1213 5.13279C23.3999 4.85421 23.6209 4.52347 23.7717 4.15946C23.9225 3.79545 24.0001 3.4053 24.0001 3.01129C24.0001 2.61728 23.9225 2.22713 23.7717 1.86312C23.6209 1.49911 23.3999 1.16837 23.1213 0.889789C22.5501 0.343925 21.7904 0.0393066 21.0003 0.0393066C20.2102 0.0393066 19.4505 0.343925 18.8793 0.889789L9.77928 10.0128C9.6427 10.1472 9.54759 10.3179 9.50528 10.5048ZM20.2933 2.30479C20.4835 2.12253 20.7368 2.02078 21.0003 2.02078C21.2637 2.02078 21.517 2.12253 21.7073 2.30479C21.8923 2.49342 21.9959 2.74708 21.9959 3.01129C21.9959 3.27549 21.8923 3.52916 21.7073 3.71779L21.0003 4.42479L19.5863 3.01079L20.2933 2.30479ZM11.3933 11.2188L18.1673 4.42779L19.5673 5.83479L12.7903 12.6278L10.9953 13.0218L11.3933 11.2188Z" fill="#8488EC"/>
</g>
</g>
</g>
</g>
</g>
</g>
</g>
</g>
<defs>
<filter id="filter0_d_841_8304" x="-449.6" y="-25.6" width="518.2" height="93.2" filterUnits="userSpaceOnUse" color-interpolation-filters="sRGB">
<feFlood flood-opacity="0" result="BackgroundImageFix"/>
<feColorMatrix in="SourceAlpha" type="matrix" values="0 0 0 0 0 0 0 0 0 0 0 0 0 0 0 0 0 0 127 0" result="hardAlpha"/>
<feOffset dx="5" dy="7"/>
<feGaussianBlur stdDeviation="5.8"/>
<feComposite in2="hardAlpha" operator="out"/>
<feColorMatrix type="matrix" values="0 0 0 0 0.246804 0 0 0 0 0.248985 0 0 0 0 0.303516 0 0 0 0.07 0"/>
<feBlend mode="normal" in2="BackgroundImageFix" result="effect1_dropShadow_841_8304"/>
<feBlend mode="normal" in="SourceGraphic" in2="effect1_dropShadow_841_8304" result="shape"/>
</filter>
<clipPath id="clip0_841_8304">
<rect width="2100" height="3050" fill="white" transform="translate(-973 -338)"/>
</clipPath>
</defs>
</svg>
